<svg width="231" height="84" viewBox="0 0 231 84" fill="none" xmlns="http://www.w3.org/2000/svg">
<rect y="81.0729" width="230.033" height="2.00226" fill="#FF9000"/>
<rect y="0.982452" width="230.033" height="2.00226" fill="#FF9000"/>
<path d="M46.7398 45.6678V55.6123H41V27.3877H51.8673C53.9592 27.3877 55.7959 27.7754 57.3776 28.5508C58.9719 29.3262 60.1964 30.4311 61.051 31.8656C61.9056 33.2872 62.3329 34.9091 62.3329 36.7313C62.3329 39.4969 61.3954 41.6809 59.5204 43.2834C57.6582 44.873 55.0753 45.6678 51.7717 45.6678H46.7398ZM46.7398 40.9572H51.8673C53.3852 40.9572 54.5395 40.5954 55.3304 39.8717C56.1339 39.1479 56.5357 38.1141 56.5357 36.7701C56.5357 35.3873 56.1339 34.2694 55.3304 33.4164C54.5268 32.5635 53.4171 32.1241 52.0013 32.0983H46.7398V40.9572ZM75.1901 56C72.1543 56 69.6798 55.0566 67.7666 53.1698C65.8661 51.283 64.9158 48.7694 64.9158 45.629V45.0862C64.9158 42.9797 65.3176 41.0994 66.1212 39.4452C66.9247 37.7781 68.06 36.4987 69.5268 35.607C71.0064 34.7023 72.69 34.25 74.5778 34.25C77.4094 34.25 79.6352 35.1546 81.2551 36.9639C82.8878 38.7732 83.7041 41.3385 83.7041 44.6598V46.9472H70.5217C70.7003 48.3171 71.236 49.4156 72.1288 50.2426C73.0344 51.0697 74.176 51.4833 75.5536 51.4833C77.6837 51.4833 79.3482 50.7014 80.5472 49.1377L83.264 52.2199C82.4349 53.4089 81.3125 54.3393 79.8967 55.0114C78.4809 55.6705 76.912 56 75.1901 56ZM74.5587 38.7861C73.4617 38.7861 72.5689 39.1609 71.8801 39.9104C71.2041 40.66 70.7704 41.7326 70.5791 43.1283H78.2704V42.6825C78.2449 41.4418 77.9133 40.4855 77.2755 39.8135C76.6378 39.1286 75.7321 38.7861 74.5587 38.7861ZM93.4809 29.4813V34.6377H97.0204V38.7473H93.4809V49.2152C93.4809 49.9906 93.6276 50.5463 93.9209 50.8824C94.2143 51.2184 94.7755 51.3864 95.6046 51.3864C96.2168 51.3864 96.7589 51.3411 97.2309 51.2507V55.496C96.1467 55.832 95.0306 56 93.8827 56C90.0051 56 88.0281 54.0163 87.9515 50.0488V38.7473H84.9286V34.6377H87.9515V29.4813H93.4809ZM114.909 48.2072C114.909 47.1087 114.527 46.2687 113.761 45.6872C112.996 45.0927 111.619 44.4724 109.629 43.8262C107.639 43.1671 106.064 42.5209 104.903 41.8877C101.74 40.156 100.158 37.8233 100.158 34.8897C100.158 33.3648 100.579 32.0078 101.421 30.8189C102.276 29.617 103.494 28.68 105.075 28.008C106.67 27.336 108.455 27 110.432 27C112.422 27 114.195 27.3683 115.751 28.1049C117.307 28.8287 118.513 29.8561 119.367 31.1872C120.235 32.5183 120.668 34.0303 120.668 35.7233H114.929C114.929 34.4309 114.527 33.4294 113.723 32.7186C112.92 31.9949 111.791 31.633 110.337 31.633C108.934 31.633 107.843 31.9367 107.065 32.5441C106.287 33.1386 105.898 33.9269 105.898 34.9091C105.898 35.8266 106.351 36.5956 107.256 37.2159C108.175 37.8362 109.52 38.4178 111.293 38.9606C114.559 39.9557 116.938 41.1898 118.43 42.6631C119.922 44.1364 120.668 45.9715 120.668 48.1684C120.668 50.611 119.756 52.5301 117.932 53.9258C116.108 55.3086 113.653 56 110.566 56C108.423 56 106.472 55.6058 104.712 54.8175C102.952 54.0163 101.606 52.9242 100.675 51.5414C99.7564 50.1586 99.2972 48.5561 99.2972 46.734H105.056C105.056 49.8485 106.893 51.4057 110.566 51.4057C111.931 51.4057 112.996 51.1279 113.761 50.5722C114.527 50.0036 114.909 49.2152 114.909 48.2072ZM130.828 29.4813V34.6377H134.367V38.7473H130.828V49.2152C130.828 49.9906 130.974 50.5463 131.268 50.8824C131.561 51.2184 132.122 51.3864 132.952 51.3864C133.564 51.3864 134.106 51.3411 134.578 51.2507V55.496C133.494 55.832 132.378 56 131.23 56C127.352 56 125.375 54.0163 125.298 50.0488V38.7473H122.276V34.6377H125.298V29.4813H130.828ZM136.013 44.9312C136.013 42.8505 136.408 40.996 137.199 39.3676C137.99 37.7393 139.125 36.4793 140.605 35.5876C142.097 34.6959 143.825 34.25 145.79 34.25C148.583 34.25 150.86 35.1159 152.62 36.8476C154.393 38.5793 155.381 40.9314 155.585 43.9037L155.624 45.3382C155.624 48.5562 154.737 51.1408 152.964 53.0922C151.191 55.0307 148.812 56 145.828 56C142.843 56 140.458 55.0307 138.672 53.0922C136.899 51.1537 136.013 48.5174 136.013 45.1832V44.9312ZM141.542 45.3382C141.542 47.3284 141.912 48.8534 142.652 49.9131C143.392 50.9599 144.45 51.4833 145.828 51.4833C147.167 51.4833 148.213 50.9664 148.966 49.9325C149.718 48.8857 150.094 47.2186 150.094 44.9312C150.094 42.9797 149.718 41.4677 148.966 40.3951C148.213 39.3224 147.154 38.7861 145.79 38.7861C144.438 38.7861 143.392 39.3224 142.652 40.3951C141.912 41.4548 141.542 43.1025 141.542 45.3382ZM170.662 39.891C169.909 39.7877 169.246 39.736 168.672 39.736C166.58 39.736 165.209 40.4532 164.559 41.8877V55.6123H159.029V34.6377H164.253L164.406 37.1384C165.515 35.2128 167.052 34.25 169.017 34.25C169.629 34.25 170.203 34.334 170.739 34.502L170.662 39.891ZM182.486 56C179.45 56 176.976 55.0566 175.062 53.1698C173.162 51.283 172.212 48.7694 172.212 45.629V45.0862C172.212 42.9797 172.614 41.0994 173.417 39.4452C174.221 37.7781 175.356 36.4987 176.823 35.607C178.302 34.7023 179.986 34.25 181.874 34.25C184.705 34.25 186.931 35.1546 188.551 36.9639C190.184 38.7732 191 41.3385 191 44.6598V46.9472H177.818C177.996 48.3171 178.532 49.4156 179.425 50.2426C180.33 51.0697 181.472 51.4833 182.849 51.4833C184.98 51.4833 186.644 50.7014 187.843 49.1377L190.56 52.2199C189.731 53.4089 188.608 54.3393 187.193 55.0114C185.777 55.6705 184.208 56 182.486 56ZM181.855 38.7861C180.758 38.7861 179.865 39.1609 179.176 39.9104C178.5 40.66 178.066 41.7326 177.875 43.1283H185.566V42.6825C185.541 41.4418 185.209 40.4855 184.571 39.8135C183.934 39.1286 183.028 38.7861 181.855 38.7861Z" fill="#F4EDE8"/>
<ellipse rx="3.01354" ry="3.00339" transform="matrix(1 0 0 -1 210.947 42.0288)" fill="#999591"/>
<ellipse rx="3.01354" ry="3.00339" transform="matrix(1 0 0 -1 19.0857 42.0288)" fill="#999591"/>
</svg>
